<?xml version="1.0" encoding="utf-8"?>
<!-- Generator: Adobe Illustrator 24.0.2, SVG Export Plug-In . SVG Version: 6.00 Build 0)  -->
<svg version="1.1" id="Layer_1" xmlns="http://www.w3.org/2000/svg" xmlns:xlink="http://www.w3.org/1999/xlink" x="0px" y="0px"
	 viewBox="0 0 512 512" enable-background="new 0 0 512 512" xml:space="preserve">
<g>
	<g>
		<g>
			<rect x="137" y="92.4" transform="matrix(0.866 -0.5 0.5 0.866 -37.4673 85.3828)" fill="#FECA5C" width="7.1" height="40.3"/>
		</g>
	</g>
	<g>
		<g>
			<rect x="64.5" y="165" transform="matrix(0.5 -0.866 0.866 0.5 -126.3728 151.4874)" fill="#FECA5C" width="7.1" height="40.3"/>
		</g>
	</g>
	<g>
		<g>
			<rect x="21.3" y="280.8" fill="#FECA5C" width="40.3" height="7.1"/>
		</g>
	</g>
	<g>
		<g>
			
				<rect x="47.9" y="379.9" transform="matrix(0.866 -0.5 0.5 0.866 -182.6337 85.3837)" fill="#FECA5C" width="40.3" height="7.1"/>
		</g>
	</g>
	<g>
		<g>
			
				<rect x="120.4" y="452.5" transform="matrix(0.5 -0.866 0.866 0.5 -324.6675 349.7802)" fill="#FECA5C" width="40.3" height="7.1"/>
		</g>
	</g>
	<g>
		<g>
			<rect x="236.2" y="462.5" fill="#FECA5C" width="7.1" height="40.3"/>
		</g>
	</g>
	<g>
		<g>
			
				<rect x="335.3" y="435.9" transform="matrix(0.8662 -0.4998 0.4998 0.8662 -182.5664 230.3964)" fill="#FECA5C" width="7.1" height="40.3"/>
		</g>
	</g>
	<g>
		<g>
			
				<rect x="407.9" y="363.3" transform="matrix(0.5005 -0.8658 0.8658 0.5005 -126.4588 547.7993)" fill="#FECA5C" width="7.1" height="40.3"/>
		</g>
	</g>
	<g>
		<g>
			<rect x="417.9" y="280.8" fill="#FECA5C" width="40.3" height="7.1"/>
		</g>
	</g>
	<g>
		<g>
			
				<rect x="391.3" y="181.6" transform="matrix(0.8658 -0.5005 0.5005 0.8658 -37.4436 230.7802)" fill="#FECA5C" width="40.3" height="7.1"/>
		</g>
	</g>
	<g>
		<g>
			
				<rect x="318.7" y="109" transform="matrix(0.4998 -0.8662 0.8662 0.4998 71.9913 349.861)" fill="#FECA5C" width="40.3" height="7.1"/>
		</g>
	</g>
</g>
<g>
	<circle fill="#353F49" cx="239.7" cy="285.2" r="163.3"/>
</g>
<g>
	<path fill="#FCD751" d="M380.2,285.2c0,77.6-62.9,140.4-140.4,140.4S99.3,362.8,99.3,285.2c0-77.6,62.9-140.4,140.4-140.4
		S380.2,207.7,380.2,285.2z"/>
</g>
<g>
	<g>
		<path fill="#353F49" d="M239.7,3.5c-37.5,0-67.9,30.4-67.9,67.9c0,37.5,30.4,67.9,67.9,67.9c37.5,0,68-30.4,68-67.9
			C307.7,33.9,277.3,3.5,239.7,3.5z M239.7,129.9c-32.3,0-58.4-26.2-58.4-58.4S207.5,13,239.7,13c32.3,0,58.4,26.2,58.4,58.4
			S272,129.9,239.7,129.9z"/>
	</g>
</g>
<g>
	<rect x="218.3" y="97.8" fill="#353F49" width="42.8" height="37"/>
</g>
<g>
	<path fill="#F77B55" d="M274.9,99.5c-0.5-19-16-34.3-35.2-34.3c-19.2,0-34.7,15.3-35.2,34.3H274.9z"/>
</g>
<g>
	<rect x="237.6" y="151.5" fill="#353F49" width="4.4" height="24.7"/>
</g>
<g>
	
		<rect x="176.9" y="167.8" transform="matrix(0.8658 -0.5003 0.5003 0.8658 -66.0997 113.7497)" fill="#353F49" width="4.4" height="24.7"/>
</g>
<g>
	
		<rect x="132.4" y="212.2" transform="matrix(0.4998 -0.8662 0.8662 0.4998 -127.1576 228.9254)" fill="#353F49" width="4.4" height="24.7"/>
</g>
<g>
	<rect x="106" y="283.1" fill="#353F49" width="24.7" height="4.4"/>
</g>
<g>
	
		<rect x="122.3" y="343.8" transform="matrix(0.8659 -0.5002 0.5002 0.8659 -154.9823 113.7184)" fill="#353F49" width="24.7" height="4.4"/>
</g>
<g>
	
		<rect x="166.7" y="388.2" transform="matrix(0.5002 -0.8659 0.8659 0.5002 -248.5323 350.1486)" fill="#353F49" width="24.7" height="4.4"/>
</g>
<g>
	<rect x="237.6" y="394.3" fill="#353F49" width="4.4" height="24.7"/>
</g>
<g>
	
		<rect x="298.3" y="378" transform="matrix(0.8659 -0.5003 0.5003 0.8659 -154.9906 202.6561)" fill="#353F49" width="4.4" height="24.7"/>
</g>
<g>
	
		<rect x="342.7" y="333.6" transform="matrix(0.5002 -0.8659 0.8659 0.5002 -127.1849 471.5183)" fill="#353F49" width="4.4" height="24.7"/>
</g>
<g>
	<rect x="348.8" y="283.1" fill="#353F49" width="24.7" height="4.4"/>
</g>
<g>
	
		<rect x="332.5" y="222.4" transform="matrix(0.8662 -0.4998 0.4998 0.8662 -66.0676 202.4018)" fill="#353F49" width="24.7" height="4.4"/>
</g>
<g>
	
		<rect x="288.1" y="177.9" transform="matrix(0.5004 -0.8658 0.8658 0.5004 -5.859 350.0941)" fill="#353F49" width="24.7" height="4.4"/>
</g>
<g>
	<g>
		
			<rect x="151" y="186.3" transform="matrix(0.7071 -0.7071 0.7071 0.7071 -95.6296 166.5138)" fill="#353F49" width="4.4" height="24.9"/>
	</g>
	<g>
		
			<rect x="119.3" y="241.1" transform="matrix(0.2596 -0.9657 0.9657 0.2596 -154.9057 305.0829)" fill="#353F49" width="4.4" height="24.9"/>
	</g>
	<g>
		
			<rect x="109.1" y="314.7" transform="matrix(0.9658 -0.2593 0.2593 0.9658 -78.0331 42.3541)" fill="#353F49" width="24.9" height="4.4"/>
	</g>
	<g>
		
			<rect x="140.7" y="369.6" transform="matrix(0.7076 -0.7066 0.7066 0.7076 -217.9269 216.9621)" fill="#353F49" width="24.9" height="4.4"/>
	</g>
	<g>
		
			<rect x="195.6" y="401.3" transform="matrix(0.2585 -0.966 0.966 0.2585 -235.4859 500.1666)" fill="#353F49" width="24.9" height="4.4"/>
	</g>
	<g>
		
			<rect x="269.2" y="391" transform="matrix(0.966 -0.2585 0.2585 0.966 -95.0695 83.871)" fill="#353F49" width="4.4" height="24.9"/>
	</g>
	<g>
		
			<rect x="324.1" y="359.4" transform="matrix(0.7071 -0.7071 0.7071 0.7071 -167.3312 339.6145)" fill="#353F49" width="4.4" height="24.9"/>
	</g>
	<g>
		
			<rect x="355.8" y="304.5" transform="matrix(0.2574 -0.9663 0.9663 0.2574 -40.4059 581.2692)" fill="#353F49" width="4.4" height="24.9"/>
	</g>
	<g>
		<polygon fill="#353F49" points="345.4,254.7 346.5,258.9 370.6,252.5 369.4,248.2 		"/>
	</g>
	<g>
		
			<rect x="313.8" y="196.5" transform="matrix(0.7066 -0.7076 0.7076 0.7066 -44.8669 289.1707)" fill="#353F49" width="24.9" height="4.4"/>
	</g>
	<g>
		
			<rect x="259" y="164.8" transform="matrix(0.2585 -0.966 0.966 0.2585 39.925 386.0334)" fill="#353F49" width="24.9" height="4.4"/>
	</g>
	<g>
		
			<rect x="205.9" y="154.6" transform="matrix(0.966 -0.2585 0.2585 0.966 -36.0993 59.4564)" fill="#353F49" width="4.4" height="24.9"/>
	</g>
</g>
<g>
	<g>
		<rect x="201" y="226.1" fill="#353F49" width="7.3" height="1.3"/>
	</g>
	<g>
		
			<rect x="205.7" y="243.9" transform="matrix(0.8663 -0.4995 0.4995 0.8663 -94.1642 137.267)" fill="#353F49" width="7.3" height="1.3"/>
	</g>
	<g>
		
			<rect x="218.8" y="257" transform="matrix(0.4981 -0.8671 0.8671 0.4981 -111.7495 322.2053)" fill="#353F49" width="7.3" height="1.3"/>
	</g>
	<g>
		<rect x="239.6" y="258.8" fill="#353F49" width="1.3" height="7.3"/>
	</g>
	<g>
		
			<rect x="257.5" y="254" transform="matrix(0.8657 -0.5006 0.5006 0.8657 -94.2978 163.8379)" fill="#353F49" width="1.3" height="7.3"/>
	</g>
	<g>
		<polygon fill="#353F49" points="268.4,242.2 267.7,243.3 274,246.9 274.7,245.8 		"/>
	</g>
	<g>
		<rect x="272.4" y="226.1" fill="#353F49" width="7.3" height="1.3"/>
	</g>
	<g>
		<polygon fill="#353F49" points="267.7,210.1 268.4,211.2 274.7,207.6 274,206.5 		"/>
	</g>
	<g>
		
			<rect x="254.5" y="195.2" transform="matrix(0.5001 -0.866 0.866 0.5001 -40.5103 321.4103)" fill="#353F49" width="7.3" height="1.3"/>
	</g>
	<g>
		<rect x="239.6" y="187.4" fill="#353F49" width="1.3" height="7.3"/>
	</g>
	<g>
		<polygon fill="#353F49" points="223.7,199.3 224.8,198.6 221.2,192.3 220.1,193 		"/>
	</g>
	<g>
		
			<rect x="208.7" y="205.2" transform="matrix(0.4995 -0.8663 0.8663 0.4995 -76.1461 285.9256)" fill="#353F49" width="1.3" height="7.3"/>
	</g>
</g>
<g>
	<rect x="239.5" y="280.3" fill="#353F49" width="96" height="8.9"/>
</g>
<g>
	<path fill="#F77B55" d="M248.5,284.8c0,4.6-3.7,8.3-8.3,8.3c-4.6,0-8.3-3.7-8.3-8.3c0-4.6,3.7-8.3,8.3-8.3
		C244.8,276.4,248.5,280.2,248.5,284.8z"/>
</g>
<g>
	<rect x="238.6" y="200" fill="#353F49" width="3.5" height="24.5"/>
</g>
<g>
	<path fill="#F77B55" d="M245.2,224.9c0,2.8-2.2,5-5,5c-2.8,0-5-2.2-5-5c0-2.8,2.2-5,5-5C242.9,219.9,245.2,222.2,245.2,224.9z"/>
</g>
<g>
	<rect x="219.6" y="88.4" fill="#FFFFFF" width="25" height="4.4"/>
</g>
</svg>
